# Rhino

g object_1
v 145 200 0
v 150 200 0
v 155 200 0
v 160 200 0
v 165 200 0
v 170 200 0
v 175 200 0
v 180 200 0
v 145 205 0
v 150 205 0
v 155 205 0
v 160 205 0
v 165 205 0
v 170 205 0
v 175 205 0
v 180 205 0
v 145 210 0
v 150 210 0
v 155 210 0
v 160 210 0
v 165 210 0
v 170 210 0
v 175 210 0
v 180 210 0
v 145 215 0
v 150 215 0
v 155 215 0
v 160 215 0
v 165 215 0
v 170 215 0
v 175 215 0
v 180 215 0
vt 0 0
vt 0.1428571492433548 0
vt 0.2857142984867096 0
vt 0.4285714328289032 0
vt 0.5714285969734192 0
vt 0.7142857313156128 0
vt 0.8571428656578064 0
vt 1 0
vt 0 0.3333333432674408
vt 0.1428571492433548 0.3333333432674408
vt 0.2857142984867096 0.3333333432674408
vt 0.4285714328289032 0.3333333432674408
vt 0.5714285969734192 0.3333333432674408
vt 0.7142857313156128 0.3333333432674408
vt 0.8571428656578064 0.3333333432674408
vt 1 0.3333333432674408
vt 0 0.6666666865348816
vt 0.1428571492433548 0.6666666865348816
vt 0.2857142984867096 0.6666666865348816
vt 0.4285714328289032 0.6666666865348816
vt 0.5714285969734192 0.6666666865348816
vt 0.7142857313156128 0.6666666865348816
vt 0.8571428656578064 0.6666666865348816
vt 1 0.6666666865348816
vt 0 1
vt 0.1428571492433548 1
vt 0.2857142984867096 1
vt 0.4285714328289032 1
vt 0.5714285969734192 1
vt 0.7142857313156128 1
vt 0.8571428656578064 1
vt 1 1
vn 0 0 1
vn 0 0 1
vn 0 0 1
vn 0 0 1
vn 0 0 1
vn 0 0 1
vn 0 0 1
vn 0 0 1
vn 0 0 1
vn 0 0 1
vn 0 0 1
vn 0 0 1
vn 0 0 1
vn 0 0 1
vn 0 0 1
vn 0 0 1
vn 0 0 1
vn 0 0 1
vn 0 0 1
vn 0 0 1
vn 0 0 1
vn 0 0 1
vn 0 0 1
vn 0 0 1
vn 0 0 1
vn 0 0 1
vn 0 0 1
vn 0 0 1
vn 0 0 1
vn 0 0 1
vn 0 0 1
vn 0 0 1
f 1/1/1 2/2/2 10/10/10 9/9/9
f 2/2/2 3/3/3 11/11/11 10/10/10
f 3/3/3 4/4/4 12/12/12 11/11/11
f 4/4/4 5/5/5 13/13/13 12/12/12
f 5/5/5 6/6/6 14/14/14 13/13/13
f 6/6/6 7/7/7 15/15/15 14/14/14
f 7/7/7 8/8/8 16/16/16 15/15/15
f 9/9/9 10/10/10 18/18/18 17/17/17
f 10/10/10 11/11/11 19/19/19 18/18/18
f 11/11/11 12/12/12 20/20/20 19/19/19
f 12/12/12 13/13/13 21/21/21 20/20/20
f 13/13/13 14/14/14 22/22/22 21/21/21
f 14/14/14 15/15/15 23/23/23 22/22/22
f 15/15/15 16/16/16 24/24/24 23/23/23
f 17/17/17 18/18/18 26/26/26 25/25/25
f 18/18/18 19/19/19 27/27/27 26/26/26
f 19/19/19 20/20/20 28/28/28 27/27/27
f 20/20/20 21/21/21 29/29/29 28/28/28
f 21/21/21 22/22/22 30/30/30 29/29/29
f 22/22/22 23/23/23 31/31/31 30/30/30
f 23/23/23 24/24/24 32/32/32 31/31/31
g object_2
v 125 215 0
v 130 215 0
v 135 215 0
v 140 215 0
v 145 215 0
v 150 215 0
v 155 215 0
v 160 215 0
v 125 220 0
v 130 220 0
v 135 220 0
v 140 220 0
v 145 220 0
v 150 220 0
v 155 220 0
v 160 220 0
v 125 225 0
v 130 225 0
v 135 225 0
v 140 225 0
v 145 225 0
v 150 225 0
v 155 225 0
v 160 225 0
v 125 230 0
v 130 230 0
v 135 230 0
v 140 230 0
v 145 230 0
v 150 230 0
v 155 230 0
v 160 230 0
vt 0 0
vt 0.1428571492433548 0
vt 0.2857142984867096 0
vt 0.4285714328289032 0
vt 0.5714285969734192 0
vt 0.7142857313156128 0
vt 0.8571428656578064 0
vt 1 0
vt 0 0.3333333432674408
vt 0.1428571492433548 0.3333333432674408
vt 0.2857142984867096 0.3333333432674408
vt 0.4285714328289032 0.3333333432674408
vt 0.5714285969734192 0.3333333432674408
vt 0.7142857313156128 0.3333333432674408
vt 0.8571428656578064 0.3333333432674408
vt 1 0.3333333432674408
vt 0 0.6666666865348816
vt 0.1428571492433548 0.6666666865348816
vt 0.2857142984867096 0.6666666865348816
vt 0.4285714328289032 0.6666666865348816
vt 0.5714285969734192 0.6666666865348816
vt 0.7142857313156128 0.6666666865348816
vt 0.8571428656578064 0.6666666865348816
vt 1 0.6666666865348816
vt 0 1
vt 0.1428571492433548 1
vt 0.2857142984867096 1
vt 0.4285714328289032 1
vt 0.5714285969734192 1
vt 0.7142857313156128 1
vt 0.8571428656578064 1
vt 1 1
vn 0 0 1
vn 0 0 1
vn 0 0 1
vn 0 0 1
vn 0 0 1
vn 0 0 1
vn 0 0 1
vn 0 0 1
vn 0 0 1
vn 0 0 1
vn 0 0 1
vn 0 0 1
vn 0 0 1
vn 0 0 1
vn 0 0 1
vn 0 0 1
vn 0 0 1
vn 0 0 1
vn 0 0 1
vn 0 0 1
vn 0 0 1
vn 0 0 1
vn 0 0 1
vn 0 0 1
vn 0 0 1
vn 0 0 1
vn 0 0 1
vn 0 0 1
vn 0 0 1
vn 0 0 1
vn 0 0 1
vn 0 0 1
f 33/33/33 34/34/34 42/42/42 41/41/41
f 34/34/34 35/35/35 43/43/43 42/42/42
f 35/35/35 36/36/36 44/44/44 43/43/43
f 36/36/36 37/37/37 45/45/45 44/44/44
f 37/37/37 38/38/38 46/46/46 45/45/45
f 38/38/38 39/39/39 47/47/47 46/46/46
f 39/39/39 40/40/40 48/48/48 47/47/47
f 41/41/41 42/42/42 50/50/50 49/49/49
f 42/42/42 43/43/43 51/51/51 50/50/50
f 43/43/43 44/44/44 52/52/52 51/51/51
f 44/44/44 45/45/45 53/53/53 52/52/52
f 45/45/45 46/46/46 54/54/54 53/53/53
f 46/46/46 47/47/47 55/55/55 54/54/54
f 47/47/47 48/48/48 56/56/56 55/55/55
f 49/49/49 50/50/50 58/58/58 57/57/57
f 50/50/50 51/51/51 59/59/59 58/58/58
f 51/51/51 52/52/52 60/60/60 59/59/59
f 52/52/52 53/53/53 61/61/61 60/60/60
f 53/53/53 54/54/54 62/62/62 61/61/61
f 54/54/54 55/55/55 63/63/63 62/62/62
f 55/55/55 56/56/56 64/64/64 63/63/63
