# Rhino

g object_1
v 140 90 0
v 140 95 0
v 140 100 0
v 140 105 0
v 140 110 0
v 140 115 0
v 140 120 0
v 140 125 0
v 140 130 0
v 140 135 0
v 135 90 0
v 135 95 0
v 135 100 0
v 135 105 0
v 135 110 0
v 135 115 0
v 135 120 0
v 135 125 0
v 135 130 0
v 135 135 0
v 130 90 0
v 130 95 0
v 130 100 0
v 130 105 0
v 130 110 0
v 130 115 0
v 130 120 0
v 130 125 0
v 130 130 0
v 130 135 0
v 125 90 0
v 125 95 0
v 125 100 0
v 125 105 0
v 125 110 0
v 125 115 0
v 125 120 0
v 125 125 0
v 125 130 0
v 125 135 0
vt 0 0
vt 0.1111111119389534 0
vt 0.2222222238779068 0
vt 0.3333333432674408 0
vt 0.4444444477558136 0
vt 0.5555555820465088 0
vt 0.6666666865348816 0
vt 0.7777777910232544 0
vt 0.8888888955116272 0
vt 1 0
vt 0 0.3333333432674408
vt 0.1111111119389534 0.3333333432674408
vt 0.2222222238779068 0.3333333432674408
vt 0.3333333432674408 0.3333333432674408
vt 0.4444444477558136 0.3333333432674408
vt 0.5555555820465088 0.3333333432674408
vt 0.6666666865348816 0.3333333432674408
vt 0.7777777910232544 0.3333333432674408
vt 0.8888888955116272 0.3333333432674408
vt 1 0.3333333432674408
vt 0 0.6666666865348816
vt 0.1111111119389534 0.6666666865348816
vt 0.2222222238779068 0.6666666865348816
vt 0.3333333432674408 0.6666666865348816
vt 0.4444444477558136 0.6666666865348816
vt 0.5555555820465088 0.6666666865348816
vt 0.6666666865348816 0.6666666865348816
vt 0.7777777910232544 0.6666666865348816
vt 0.8888888955116272 0.6666666865348816
vt 1 0.6666666865348816
vt 0 1
vt 0.1111111119389534 1
vt 0.2222222238779068 1
vt 0.3333333432674408 1
vt 0.4444444477558136 1
vt 0.5555555820465088 1
vt 0.6666666865348816 1
vt 0.7777777910232544 1
vt 0.8888888955116272 1
vt 1 1
vn 0 0 1
vn 0 0 1
vn 0 0 1
vn 0 0 1
vn 0 0 1
vn 0 0 1
vn 0 0 1
vn 0 0 1
vn 0 0 1
vn 0 0 1
vn 0 0 1
vn 0 0 1
vn 0 0 1
vn 0 0 1
vn 0 0 1
vn 0 0 1
vn 0 0 1
vn 0 0 1
vn 0 0 1
vn 0 0 1
vn 0 0 1
vn 0 0 1
vn 0 0 1
vn 0 0 1
vn 0 0 1
vn 0 0 1
vn 0 0 1
vn 0 0 1
vn 0 0 1
vn 0 0 1
vn 0 0 1
vn 0 0 1
vn 0 0 1
vn 0 0 1
vn 0 0 1
vn 0 0 1
vn 0 0 1
vn 0 0 1
vn 0 0 1
vn 0 0 1
f 1/1/1 2/2/2 12/12/12 11/11/11
f 2/2/2 3/3/3 13/13/13 12/12/12
f 3/3/3 4/4/4 14/14/14 13/13/13
f 4/4/4 5/5/5 15/15/15 14/14/14
f 5/5/5 6/6/6 16/16/16 15/15/15
f 6/6/6 7/7/7 17/17/17 16/16/16
f 7/7/7 8/8/8 18/18/18 17/17/17
f 8/8/8 9/9/9 19/19/19 18/18/18
f 9/9/9 10/10/10 20/20/20 19/19/19
f 11/11/11 12/12/12 22/22/22 21/21/21
f 12/12/12 13/13/13 23/23/23 22/22/22
f 13/13/13 14/14/14 24/24/24 23/23/23
f 14/14/14 15/15/15 25/25/25 24/24/24
f 15/15/15 16/16/16 26/26/26 25/25/25
f 16/16/16 17/17/17 27/27/27 26/26/26
f 17/17/17 18/18/18 28/28/28 27/27/27
f 18/18/18 19/19/19 29/29/29 28/28/28
f 19/19/19 20/20/20 30/30/30 29/29/29
f 21/21/21 22/22/22 32/32/32 31/31/31
f 22/22/22 23/23/23 33/33/33 32/32/32
f 23/23/23 24/24/24 34/34/34 33/33/33
f 24/24/24 25/25/25 35/35/35 34/34/34
f 25/25/25 26/26/26 36/36/36 35/35/35
f 26/26/26 27/27/27 37/37/37 36/36/36
f 27/27/27 28/28/28 38/38/38 37/37/37
f 28/28/28 29/29/29 39/39/39 38/38/38
f 29/29/29 30/30/30 40/40/40 39/39/39
g object_2
v 170 120 0
v 170 125 0
v 170 130 0
v 170 135 0
v 165 120 0
v 165 125 0
v 165 130 0
v 165 135 0
v 160 120 0
v 160 125 0
v 160 130 0
v 160 135 0
v 155 120 0
v 155 125 0
v 155 130 0
v 155 135 0
v 150 120 0
v 150 125 0
v 150 130 0
v 150 135 0
v 145 120 0
v 145 125 0
v 145 130 0
v 145 135 0
v 140 120 0
v 140 125 0
v 140 130 0
v 140 135 0
vt 0 0
vt 0.3333333432674408 0
vt 0.6666666865348816 0
vt 1 0
vt 0 0.1666666716337204
vt 0.3333333432674408 0.1666666716337204
vt 0.6666666865348816 0.1666666716337204
vt 1 0.1666666716337204
vt 0 0.3333333432674408
vt 0.3333333432674408 0.3333333432674408
vt 0.6666666865348816 0.3333333432674408
vt 1 0.3333333432674408
vt 0 0.5
vt 0.3333333432674408 0.5
vt 0.6666666865348816 0.5
vt 1 0.5
vt 0 0.6666666865348816
vt 0.3333333432674408 0.6666666865348816
vt 0.6666666865348816 0.6666666865348816
vt 1 0.6666666865348816
vt 0 0.8333333134651184
vt 0.3333333432674408 0.8333333134651184
vt 0.6666666865348816 0.8333333134651184
vt 1 0.8333333134651184
vt 0 1
vt 0.3333333432674408 1
vt 0.6666666865348816 1
vt 1 1
vn 0 0 1
vn 0 0 1
vn 0 0 1
vn 0 0 1
vn 0 0 1
vn 0 0 1
vn 0 0 1
vn 0 0 1
vn 0 0 1
vn 0 0 1
vn 0 0 1
vn 0 0 1
vn 0 0 1
vn 0 0 1
vn 0 0 1
vn 0 0 1
vn 0 0 1
vn 0 0 1
vn 0 0 1
vn 0 0 1
vn 0 0 1
vn 0 0 1
vn 0 0 1
vn 0 0 1
vn 0 0 1
vn 0 0 1
vn 0 0 1
vn 0 0 1
f 41/41/41 42/42/42 46/46/46 45/45/45
f 42/42/42 43/43/43 47/47/47 46/46/46
f 43/43/43 44/44/44 48/48/48 47/47/47
f 45/45/45 46/46/46 50/50/50 49/49/49
f 46/46/46 47/47/47 51/51/51 50/50/50
f 47/47/47 48/48/48 52/52/52 51/51/51
f 49/49/49 50/50/50 54/54/54 53/53/53
f 50/50/50 51/51/51 55/55/55 54/54/54
f 51/51/51 52/52/52 56/56/56 55/55/55
f 53/53/53 54/54/54 58/58/58 57/57/57
f 54/54/54 55/55/55 59/59/59 58/58/58
f 55/55/55 56/56/56 60/60/60 59/59/59
f 57/57/57 58/58/58 62/62/62 61/61/61
f 58/58/58 59/59/59 63/63/63 62/62/62
f 59/59/59 60/60/60 64/64/64 63/63/63
f 61/61/61 62/62/62 66/66/66 65/65/65
f 62/62/62 63/63/63 67/67/67 66/66/66
f 63/63/63 64/64/64 68/68/68 67/67/67
g object_3
v 170 120 0
v 170 125 0
v 170 130 0
v 170 135 0
v 165 120 0
v 165 125 0
v 165 130 0
v 165 135 0
v 160 120 0
v 160 125 0
v 160 130 0
v 160 135 0
v 155 120 0
v 155 125 0
v 155 130 0
v 155 135 0
v 150 120 0
v 150 125 0
v 150 130 0
v 150 135 0
v 145 120 0
v 145 125 0
v 145 130 0
v 145 135 0
v 140 120 0
v 140 125 0
v 140 130 0
v 140 135 0
vt 0 0
vt 0.3333333432674408 0
vt 0.6666666865348816 0
vt 1 0
vt 0 0.1666666716337204
vt 0.3333333432674408 0.1666666716337204
vt 0.6666666865348816 0.1666666716337204
vt 1 0.1666666716337204
vt 0 0.3333333432674408
vt 0.3333333432674408 0.3333333432674408
vt 0.6666666865348816 0.3333333432674408
vt 1 0.3333333432674408
vt 0 0.5
vt 0.3333333432674408 0.5
vt 0.6666666865348816 0.5
vt 1 0.5
vt 0 0.6666666865348816
vt 0.3333333432674408 0.6666666865348816
vt 0.6666666865348816 0.6666666865348816
vt 1 0.6666666865348816
vt 0 0.8333333134651184
vt 0.3333333432674408 0.8333333134651184
vt 0.6666666865348816 0.8333333134651184
vt 1 0.8333333134651184
vt 0 1
vt 0.3333333432674408 1
vt 0.6666666865348816 1
vt 1 1
vn 0 0 1
vn 0 0 1
vn 0 0 1
vn 0 0 1
vn 0 0 1
vn 0 0 1
vn 0 0 1
vn 0 0 1
vn 0 0 1
vn 0 0 1
vn 0 0 1
vn 0 0 1
vn 0 0 1
vn 0 0 1
vn 0 0 1
vn 0 0 1
vn 0 0 1
vn 0 0 1
vn 0 0 1
vn 0 0 1
vn 0 0 1
vn 0 0 1
vn 0 0 1
vn 0 0 1
vn 0 0 1
vn 0 0 1
vn 0 0 1
vn 0 0 1
f 69/69/69 70/70/70 74/74/74 73/73/73
f 70/70/70 71/71/71 75/75/75 74/74/74
f 71/71/71 72/72/72 76/76/76 75/75/75
f 73/73/73 74/74/74 78/78/78 77/77/77
f 74/74/74 75/75/75 79/79/79 78/78/78
f 75/75/75 76/76/76 80/80/80 79/79/79
f 77/77/77 78/78/78 82/82/82 81/81/81
f 78/78/78 79/79/79 83/83/83 82/82/82
f 79/79/79 80/80/80 84/84/84 83/83/83
f 81/81/81 82/82/82 86/86/86 85/85/85
f 82/82/82 83/83/83 87/87/87 86/86/86
f 83/83/83 84/84/84 88/88/88 87/87/87
f 85/85/85 86/86/86 90/90/90 89/89/89
f 86/86/86 87/87/87 91/91/91 90/90/90
f 87/87/87 88/88/88 92/92/92 91/91/91
f 89/89/89 90/90/90 94/94/94 93/93/93
f 90/90/90 91/91/91 95/95/95 94/94/94
f 91/91/91 92/92/92 96/96/96 95/95/95
g object_4
v 140 90 0
v 140 95 0
v 140 100 0
v 140 105 0
v 140 110 0
v 140 115 0
v 140 120 0
v 140 125 0
v 140 130 0
v 140 135 0
v 135 90 0
v 135 95 0
v 135 100 0
v 135 105 0
v 135 110 0
v 135 115 0
v 135 120 0
v 135 125 0
v 135 130 0
v 135 135 0
v 130 90 0
v 130 95 0
v 130 100 0
v 130 105 0
v 130 110 0
v 130 115 0
v 130 120 0
v 130 125 0
v 130 130 0
v 130 135 0
v 125 90 0
v 125 95 0
v 125 100 0
v 125 105 0
v 125 110 0
v 125 115 0
v 125 120 0
v 125 125 0
v 125 130 0
v 125 135 0
vt 0 0
vt 0.1111111119389534 0
vt 0.2222222238779068 0
vt 0.3333333432674408 0
vt 0.4444444477558136 0
vt 0.5555555820465088 0
vt 0.6666666865348816 0
vt 0.7777777910232544 0
vt 0.8888888955116272 0
vt 1 0
vt 0 0.3333333432674408
vt 0.1111111119389534 0.3333333432674408
vt 0.2222222238779068 0.3333333432674408
vt 0.3333333432674408 0.3333333432674408
vt 0.4444444477558136 0.3333333432674408
vt 0.5555555820465088 0.3333333432674408
vt 0.6666666865348816 0.3333333432674408
vt 0.7777777910232544 0.3333333432674408
vt 0.8888888955116272 0.3333333432674408
vt 1 0.3333333432674408
vt 0 0.6666666865348816
vt 0.1111111119389534 0.6666666865348816
vt 0.2222222238779068 0.6666666865348816
vt 0.3333333432674408 0.6666666865348816
vt 0.4444444477558136 0.6666666865348816
vt 0.5555555820465088 0.6666666865348816
vt 0.6666666865348816 0.6666666865348816
vt 0.7777777910232544 0.6666666865348816
vt 0.8888888955116272 0.6666666865348816
vt 1 0.6666666865348816
vt 0 1
vt 0.1111111119389534 1
vt 0.2222222238779068 1
vt 0.3333333432674408 1
vt 0.4444444477558136 1
vt 0.5555555820465088 1
vt 0.6666666865348816 1
vt 0.7777777910232544 1
vt 0.8888888955116272 1
vt 1 1
vn 0 0 1
vn 0 0 1
vn 0 0 1
vn 0 0 1
vn 0 0 1
vn 0 0 1
vn 0 0 1
vn 0 0 1
vn 0 0 1
vn 0 0 1
vn 0 0 1
vn 0 0 1
vn 0 0 1
vn 0 0 1
vn 0 0 1
vn 0 0 1
vn 0 0 1
vn 0 0 1
vn 0 0 1
vn 0 0 1
vn 0 0 1
vn 0 0 1
vn 0 0 1
vn 0 0 1
vn 0 0 1
vn 0 0 1
vn 0 0 1
vn 0 0 1
vn 0 0 1
vn 0 0 1
vn 0 0 1
vn 0 0 1
vn 0 0 1
vn 0 0 1
vn 0 0 1
vn 0 0 1
vn 0 0 1
vn 0 0 1
vn 0 0 1
vn 0 0 1
f 97/97/97 98/98/98 108/108/108 107/107/107
f 98/98/98 99/99/99 109/109/109 108/108/108
f 99/99/99 100/100/100 110/110/110 109/109/109
f 100/100/100 101/101/101 111/111/111 110/110/110
f 101/101/101 102/102/102 112/112/112 111/111/111
f 102/102/102 103/103/103 113/113/113 112/112/112
f 103/103/103 104/104/104 114/114/114 113/113/113
f 104/104/104 105/105/105 115/115/115 114/114/114
f 105/105/105 106/106/106 116/116/116 115/115/115
f 107/107/107 108/108/108 118/118/118 117/117/117
f 108/108/108 109/109/109 119/119/119 118/118/118
f 109/109/109 110/110/110 120/120/120 119/119/119
f 110/110/110 111/111/111 121/121/121 120/120/120
f 111/111/111 112/112/112 122/122/122 121/121/121
f 112/112/112 113/113/113 123/123/123 122/122/122
f 113/113/113 114/114/114 124/124/124 123/123/123
f 114/114/114 115/115/115 125/125/125 124/124/124
f 115/115/115 116/116/116 126/126/126 125/125/125
f 117/117/117 118/118/118 128/128/128 127/127/127
f 118/118/118 119/119/119 129/129/129 128/128/128
f 119/119/119 120/120/120 130/130/130 129/129/129
f 120/120/120 121/121/121 131/131/131 130/130/130
f 121/121/121 122/122/122 132/132/132 131/131/131
f 122/122/122 123/123/123 133/133/133 132/132/132
f 123/123/123 124/124/124 134/134/134 133/133/133
f 124/124/124 125/125/125 135/135/135 134/134/134
f 125/125/125 126/126/126 136/136/136 135/135/135
