# Rhino

g object_1
v -270 214 0
v -265 214 0
v -260 214 0
v -255 214 0
v -250 214 0
v -245 214 0
v -240 214 0
v -270 219 0
v -265 219 0
v -260 219 0
v -255 219 0
v -250 219 0
v -245 219 0
v -240 219 0
v -270 224 0
v -265 224 0
v -260 224 0
v -255 224 0
v -250 224 0
v -245 224 0
v -240 224 0
v -270 229 0
v -265 229 0
v -260 229 0
v -255 229 0
v -250 229 0
v -245 229 0
v -240 229 0
v -270 234 0
v -265 234 0
v -260 234 0
v -255 234 0
v -250 234 0
v -245 234 0
v -240 234 0
vt 0 0
vt 0.1666666716337204 0
vt 0.3333333432674408 0
vt 0.5 0
vt 0.6666666865348816 0
vt 0.8333333134651184 0
vt 1 0
vt 0 0.25
vt 0.1666666716337204 0.25
vt 0.3333333432674408 0.25
vt 0.5 0.25
vt 0.6666666865348816 0.25
vt 0.8333333134651184 0.25
vt 1 0.25
vt 0 0.5
vt 0.1666666716337204 0.5
vt 0.3333333432674408 0.5
vt 0.5 0.5
vt 0.6666666865348816 0.5
vt 0.8333333134651184 0.5
vt 1 0.5
vt 0 0.75
vt 0.1666666716337204 0.75
vt 0.3333333432674408 0.75
vt 0.5 0.75
vt 0.6666666865348816 0.75
vt 0.8333333134651184 0.75
vt 1 0.75
vt 0 1
vt 0.1666666716337204 1
vt 0.3333333432674408 1
vt 0.5 1
vt 0.6666666865348816 1
vt 0.8333333134651184 1
vt 1 1
vn 0 0 1
vn 0 0 1
vn 0 0 1
vn 0 0 1
vn 0 0 1
vn 0 0 1
vn 0 0 1
vn 0 0 1
vn 0 0 1
vn 0 0 1
vn 0 0 1
vn 0 0 1
vn 0 0 1
vn 0 0 1
vn 0 0 1
vn 0 0 1
vn 0 0 1
vn 0 0 1
vn 0 0 1
vn 0 0 1
vn 0 0 1
vn 0 0 1
vn 0 0 1
vn 0 0 1
vn 0 0 1
vn 0 0 1
vn 0 0 1
vn 0 0 1
vn 0 0 1
vn 0 0 1
vn 0 0 1
vn 0 0 1
vn 0 0 1
vn 0 0 1
vn 0 0 1
f 1/1/1 2/2/2 9/9/9 8/8/8
f 2/2/2 3/3/3 10/10/10 9/9/9
f 3/3/3 4/4/4 11/11/11 10/10/10
f 4/4/4 5/5/5 12/12/12 11/11/11
f 5/5/5 6/6/6 13/13/13 12/12/12
f 6/6/6 7/7/7 14/14/14 13/13/13
f 8/8/8 9/9/9 16/16/16 15/15/15
f 9/9/9 10/10/10 17/17/17 16/16/16
f 10/10/10 11/11/11 18/18/18 17/17/17
f 11/11/11 12/12/12 19/19/19 18/18/18
f 12/12/12 13/13/13 20/20/20 19/19/19
f 13/13/13 14/14/14 21/21/21 20/20/20
f 15/15/15 16/16/16 23/23/23 22/22/22
f 16/16/16 17/17/17 24/24/24 23/23/23
f 17/17/17 18/18/18 25/25/25 24/24/24
f 18/18/18 19/19/19 26/26/26 25/25/25
f 19/19/19 20/20/20 27/27/27 26/26/26
f 20/20/20 21/21/21 28/28/28 27/27/27
f 22/22/22 23/23/23 30/30/30 29/29/29
f 23/23/23 24/24/24 31/31/31 30/30/30
f 24/24/24 25/25/25 32/32/32 31/31/31
f 25/25/25 26/26/26 33/33/33 32/32/32
f 26/26/26 27/27/27 34/34/34 33/33/33
f 27/27/27 28/28/28 35/35/35 34/34/34
