# Rhino

g object_1
v 95 69 0
v 100 69 0
v 105 69 0
v 110 69 0
v 95 74 0
v 100 74 0
v 105 74 0
v 110 74 0
v 95 79 0
v 100 79 0
v 105 79 0
v 110 79 0
v 95 84 0
v 100 84 0
v 105 84 0
v 110 84 0
vt 0 0
vt 0.3333333432674408 0
vt 0.6666666865348816 0
vt 1 0
vt 0 0.3333333432674408
vt 0.3333333432674408 0.3333333432674408
vt 0.6666666865348816 0.3333333432674408
vt 1 0.3333333432674408
vt 0 0.6666666865348816
vt 0.3333333432674408 0.6666666865348816
vt 0.6666666865348816 0.6666666865348816
vt 1 0.6666666865348816
vt 0 1
vt 0.3333333432674408 1
vt 0.6666666865348816 1
vt 1 1
vn 0 0 1
vn 0 0 1
vn 0 0 1
vn 0 0 1
vn 0 0 1
vn 0 0 1
vn 0 0 1
vn 0 0 1
vn 0 0 1
vn 0 0 1
vn 0 0 1
vn 0 0 1
vn 0 0 1
vn 0 0 1
vn 0 0 1
vn 0 0 1
f 1/1/1 2/2/2 6/6/6 5/5/5
f 2/2/2 3/3/3 7/7/7 6/6/6
f 3/3/3 4/4/4 8/8/8 7/7/7
f 5/5/5 6/6/6 10/10/10 9/9/9
f 6/6/6 7/7/7 11/11/11 10/10/10
f 7/7/7 8/8/8 12/12/12 11/11/11
f 9/9/9 10/10/10 14/14/14 13/13/13
f 10/10/10 11/11/11 15/15/15 14/14/14
f 11/11/11 12/12/12 16/16/16 15/15/15
g object_2
v 60 69 0
v 65 69 0
v 70 69 0
v 75 69 0
v 80 69 0
v 85 69 0
v 90 69 0
v 95 69 0
v 60 74 0
v 65 74 0
v 70 74 0
v 75 74 0
v 80 74 0
v 85 74 0
v 90 74 0
v 95 74 0
v 60 79 0
v 65 79 0
v 70 79 0
v 75 79 0
v 80 79 0
v 85 79 0
v 90 79 0
v 95 79 0
vt 0 0
vt 0.1428571492433548 0
vt 0.2857142984867096 0
vt 0.4285714328289032 0
vt 0.5714285969734192 0
vt 0.7142857313156128 0
vt 0.8571428656578064 0
vt 1 0
vt 0 0.5
vt 0.1428571492433548 0.5
vt 0.2857142984867096 0.5
vt 0.4285714328289032 0.5
vt 0.5714285969734192 0.5
vt 0.7142857313156128 0.5
vt 0.8571428656578064 0.5
vt 1 0.5
vt 0 1
vt 0.1428571492433548 1
vt 0.2857142984867096 1
vt 0.4285714328289032 1
vt 0.5714285969734192 1
vt 0.7142857313156128 1
vt 0.8571428656578064 1
vt 1 1
vn 0 0 1
vn 0 0 1
vn 0 0 1
vn 0 0 1
vn 0 0 1
vn 0 0 1
vn 0 0 1
vn 0 0 1
vn 0 0 1
vn 0 0 1
vn 0 0 1
vn 0 0 1
vn 0 0 1
vn 0 0 1
vn 0 0 1
vn 0 0 1
vn 0 0 1
vn 0 0 1
vn 0 0 1
vn 0 0 1
vn 0 0 1
vn 0 0 1
vn 0 0 1
vn 0 0 1
f 17/17/17 18/18/18 26/26/26 25/25/25
f 18/18/18 19/19/19 27/27/27 26/26/26
f 19/19/19 20/20/20 28/28/28 27/27/27
f 20/20/20 21/21/21 29/29/29 28/28/28
f 21/21/21 22/22/22 30/30/30 29/29/29
f 22/22/22 23/23/23 31/31/31 30/30/30
f 23/23/23 24/24/24 32/32/32 31/31/31
f 25/25/25 26/26/26 34/34/34 33/33/33
f 26/26/26 27/27/27 35/35/35 34/34/34
f 27/27/27 28/28/28 36/36/36 35/35/35
f 28/28/28 29/29/29 37/37/37 36/36/36
f 29/29/29 30/30/30 38/38/38 37/37/37
f 30/30/30 31/31/31 39/39/39 38/38/38
f 31/31/31 32/32/32 40/40/40 39/39/39
g object_3
v 50 89 0
v 55 89 0
v 60 89 0
v 65 89 0
v 70 89 0
v 75 89 0
v 80 89 0
v 85 89 0
v 90 89 0
v 95 89 0
v 50 94 0
v 55 94 0
v 60 94 0
v 65 94 0
v 70 94 0
v 75 94 0
v 80 94 0
v 85 94 0
v 90 94 0
v 95 94 0
v 50 99 0
v 55 99 0
v 60 99 0
v 65 99 0
v 70 99 0
v 75 99 0
v 80 99 0
v 85 99 0
v 90 99 0
v 95 99 0
vt 0 0
vt 0.1111111119389534 0
vt 0.2222222238779068 0
vt 0.3333333432674408 0
vt 0.4444444477558136 0
vt 0.5555555820465088 0
vt 0.6666666865348816 0
vt 0.7777777910232544 0
vt 0.8888888955116272 0
vt 1 0
vt 0 0.5
vt 0.1111111119389534 0.5
vt 0.2222222238779068 0.5
vt 0.3333333432674408 0.5
vt 0.4444444477558136 0.5
vt 0.5555555820465088 0.5
vt 0.6666666865348816 0.5
vt 0.7777777910232544 0.5
vt 0.8888888955116272 0.5
vt 1 0.5
vt 0 1
vt 0.1111111119389534 1
vt 0.2222222238779068 1
vt 0.3333333432674408 1
vt 0.4444444477558136 1
vt 0.5555555820465088 1
vt 0.6666666865348816 1
vt 0.7777777910232544 1
vt 0.8888888955116272 1
vt 1 1
vn 0 0 1
vn 0 0 1
vn 0 0 1
vn 0 0 1
vn 0 0 1
vn 0 0 1
vn 0 0 1
vn 0 0 1
vn 0 0 1
vn 0 0 1
vn 0 0 1
vn 0 0 1
vn 0 0 1
vn 0 0 1
vn 0 0 1
vn 0 0 1
vn 0 0 1
vn 0 0 1
vn 0 0 1
vn 0 0 1
vn 0 0 1
vn 0 0 1
vn 0 0 1
vn 0 0 1
vn 0 0 1
vn 0 0 1
vn 0 0 1
vn 0 0 1
vn 0 0 1
vn 0 0 1
f 41/41/41 42/42/42 52/52/52 51/51/51
f 42/42/42 43/43/43 53/53/53 52/52/52
f 43/43/43 44/44/44 54/54/54 53/53/53
f 44/44/44 45/45/45 55/55/55 54/54/54
f 45/45/45 46/46/46 56/56/56 55/55/55
f 46/46/46 47/47/47 57/57/57 56/56/56
f 47/47/47 48/48/48 58/58/58 57/57/57
f 48/48/48 49/49/49 59/59/59 58/58/58
f 49/49/49 50/50/50 60/60/60 59/59/59
f 51/51/51 52/52/52 62/62/62 61/61/61
f 52/52/52 53/53/53 63/63/63 62/62/62
f 53/53/53 54/54/54 64/64/64 63/63/63
f 54/54/54 55/55/55 65/65/65 64/64/64
f 55/55/55 56/56/56 66/66/66 65/65/65
f 56/56/56 57/57/57 67/67/67 66/66/66
f 57/57/57 58/58/58 68/68/68 67/67/67
f 58/58/58 59/59/59 69/69/69 68/68/68
f 59/59/59 60/60/60 70/70/70 69/69/69
g object_4
v 50 69 0
v 55 69 0
v 60 69 0
v 50 74 0
v 55 74 0
v 60 74 0
v 50 79 0
v 55 79 0
v 60 79 0
v 50 84 0
v 55 84 0
v 60 84 0
v 50 89 0
v 55 89 0
v 60 89 0
v 50 94 0
v 55 94 0
v 60 94 0
v 50 99 0
v 55 99 0
v 60 99 0
vt 0 0
vt 0.5 0
vt 1 0
vt 0 0.1666666716337204
vt 0.5 0.1666666716337204
vt 1 0.1666666716337204
vt 0 0.3333333432674408
vt 0.5 0.3333333432674408
vt 1 0.3333333432674408
vt 0 0.5
vt 0.5 0.5
vt 1 0.5
vt 0 0.6666666865348816
vt 0.5 0.6666666865348816
vt 1 0.6666666865348816
vt 0 0.8333333134651184
vt 0.5 0.8333333134651184
vt 1 0.8333333134651184
vt 0 1
vt 0.5 1
vt 1 1
vn 0 0 1
vn 0 0 1
vn 0 0 1
vn 0 0 1
vn 0 0 1
vn 0 0 1
vn 0 0 1
vn 0 0 1
vn 0 0 1
vn 0 0 1
vn 0 0 1
vn 0 0 1
vn 0 0 1
vn 0 0 1
vn 0 0 1
vn 0 0 1
vn 0 0 1
vn 0 0 1
vn 0 0 1
vn 0 0 1
vn 0 0 1
f 71/71/71 72/72/72 75/75/75 74/74/74
f 72/72/72 73/73/73 76/76/76 75/75/75
f 74/74/74 75/75/75 78/78/78 77/77/77
f 75/75/75 76/76/76 79/79/79 78/78/78
f 77/77/77 78/78/78 81/81/81 80/80/80
f 78/78/78 79/79/79 82/82/82 81/81/81
f 80/80/80 81/81/81 84/84/84 83/83/83
f 81/81/81 82/82/82 85/85/85 84/84/84
f 83/83/83 84/84/84 87/87/87 86/86/86
f 84/84/84 85/85/85 88/88/88 87/87/87
f 86/86/86 87/87/87 90/90/90 89/89/89
f 87/87/87 88/88/88 91/91/91 90/90/90
g object_5
v 80 79 0
v 85 79 0
v 90 79 0
v 95 79 0
v 80 84 0
v 85 84 0
v 90 84 0
v 95 84 0
v 80 89 0
v 85 89 0
v 90 89 0
v 95 89 0
vt 0 0
vt 0.3333333432674408 0
vt 0.6666666865348816 0
vt 1 0
vt 0 0.5
vt 0.3333333432674408 0.5
vt 0.6666666865348816 0.5
vt 1 0.5
vt 0 1
vt 0.3333333432674408 1
vt 0.6666666865348816 1
vt 1 1
vn 0 0 1
vn 0 0 1
vn 0 0 1
vn 0 0 1
vn 0 0 1
vn 0 0 1
vn 0 0 1
vn 0 0 1
vn 0 0 1
vn 0 0 1
vn 0 0 1
vn 0 0 1
f 92/92/92 93/93/93 97/97/97 96/96/96
f 93/93/93 94/94/94 98/98/98 97/97/97
f 94/94/94 95/95/95 99/99/99 98/98/98
f 96/96/96 97/97/97 101/101/101 100/100/100
f 97/97/97 98/98/98 102/102/102 101/101/101
f 98/98/98 99/99/99 103/103/103 102/102/102
