# Rhino

g object_1
v -30 35 0
v -29 35 0
v -28 35 0
v -27 35 0
v -26 35 0
v -25 35 0
v -24 35 0
v -23 35 0
v -22 35 0
v -21 35 0
v -20 35 0
v -30 36 0
v -29 36 0
v -28 36 0
v -27 36 0
v -26 36 0
v -25 36 0
v -24 36 0
v -23 36 0
v -22 36 0
v -21 36 0
v -20 36 0
v -30 37 0
v -29 37 0
v -28 37 0
v -27 37 0
v -26 37 0
v -25 37 0
v -24 37 0
v -23 37 0
v -22 37 0
v -21 37 0
v -20 37 0
vt 0 0
vt 0.1000000014901161 0
vt 0.2000000029802322 0
vt 0.300000011920929 0
vt 0.4000000059604645 0
vt 0.5 0
vt 0.6000000238418579 0
vt 0.699999988079071 0
vt 0.800000011920929 0
vt 0.8999999761581421 0
vt 1 0
vt 0 0.5
vt 0.1000000014901161 0.5
vt 0.2000000029802322 0.5
vt 0.300000011920929 0.5
vt 0.4000000059604645 0.5
vt 0.5 0.5
vt 0.6000000238418579 0.5
vt 0.699999988079071 0.5
vt 0.800000011920929 0.5
vt 0.8999999761581421 0.5
vt 1 0.5
vt 0 1
vt 0.1000000014901161 1
vt 0.2000000029802322 1
vt 0.300000011920929 1
vt 0.4000000059604645 1
vt 0.5 1
vt 0.6000000238418579 1
vt 0.699999988079071 1
vt 0.800000011920929 1
vt 0.8999999761581421 1
vt 1 1
vn 0 0 1
vn 0 0 1
vn 0 0 1
vn 0 0 1
vn 0 0 1
vn 0 0 1
vn 0 0 1
vn 0 0 1
vn 0 0 1
vn 0 0 1
vn 0 0 1
vn 0 0 1
vn 0 0 1
vn 0 0 1
vn 0 0 1
vn 0 0 1
vn 0 0 1
vn 0 0 1
vn 0 0 1
vn 0 0 1
vn 0 0 1
vn 0 0 1
vn 0 0 1
vn 0 0 1
vn 0 0 1
vn 0 0 1
vn 0 0 1
vn 0 0 1
vn 0 0 1
vn 0 0 1
vn 0 0 1
vn 0 0 1
vn 0 0 1
f 1/1/1 2/2/2 13/13/13 12/12/12
f 2/2/2 3/3/3 14/14/14 13/13/13
f 3/3/3 4/4/4 15/15/15 14/14/14
f 4/4/4 5/5/5 16/16/16 15/15/15
f 5/5/5 6/6/6 17/17/17 16/16/16
f 6/6/6 7/7/7 18/18/18 17/17/17
f 7/7/7 8/8/8 19/19/19 18/18/18
f 8/8/8 9/9/9 20/20/20 19/19/19
f 9/9/9 10/10/10 21/21/21 20/20/20
f 10/10/10 11/11/11 22/22/22 21/21/21
f 12/12/12 13/13/13 24/24/24 23/23/23
f 13/13/13 14/14/14 25/25/25 24/24/24
f 14/14/14 15/15/15 26/26/26 25/25/25
f 15/15/15 16/16/16 27/27/27 26/26/26
f 16/16/16 17/17/17 28/28/28 27/27/27
f 17/17/17 18/18/18 29/29/29 28/28/28
f 18/18/18 19/19/19 30/30/30 29/29/29
f 19/19/19 20/20/20 31/31/31 30/30/30
f 20/20/20 21/21/21 32/32/32 31/31/31
f 21/21/21 22/22/22 33/33/33 32/32/32
g object_2
v -27 33 0
v -26 33 0
v -25 33 0
v -24 33 0
v -23 33 0
v -27 34 0
v -26 34 0
v -25 34 0
v -24 34 0
v -23 34 0
v -27 35 0
v -26 35 0
v -25 35 0
v -24 35 0
v -23 35 0
vt 0 0
vt 0.25 0
vt 0.5 0
vt 0.75 0
vt 1 0
vt 0 0.5
vt 0.25 0.5
vt 0.5 0.5
vt 0.75 0.5
vt 1 0.5
vt 0 1
vt 0.25 1
vt 0.5 1
vt 0.75 1
vt 1 1
vn 0 0 1
vn 0 0 1
vn 0 0 1
vn 0 0 1
vn 0 0 1
vn 0 0 1
vn 0 0 1
vn 0 0 1
vn 0 0 1
vn 0 0 1
vn 0 0 1
vn 0 0 1
vn 0 0 1
vn 0 0 1
vn 0 0 1
f 34/34/34 35/35/35 40/40/40 39/39/39
f 35/35/35 36/36/36 41/41/41 40/40/40
f 36/36/36 37/37/37 42/42/42 41/41/41
f 37/37/37 38/38/38 43/43/43 42/42/42
f 39/39/39 40/40/40 45/45/45 44/44/44
f 40/40/40 41/41/41 46/46/46 45/45/45
f 41/41/41 42/42/42 47/47/47 46/46/46
f 42/42/42 43/43/43 48/48/48 47/47/47
